<svg width="24" height="24" viewBox="0 0 24 24" fill="none" xmlns="http://www.w3.org/2000/svg">
<path d="M16.248 4.248L14.124 6.36L12 4.248L9.876 6.36L7.752 4.248L12 0L16.248 4.248ZM19.752 16.248L17.64 14.124L19.752 12L17.64 9.876L19.752 7.752L24 12L19.752 16.248ZM7.752 19.752L9.876 17.64L12 19.752L14.124 17.64L16.248 19.752L12 24L7.752 19.752ZM4.248 7.752L6.36 9.876L4.248 12L6.36 14.124L4.248 16.248L0 12L4.248 7.752Z" fill="black"/>
<path d="M12 15.6C13.9882 15.6 15.6 13.9882 15.6 12C15.6 10.0118 13.9882 8.39999 12 8.39999C10.0118 8.39999 8.4 10.0118 8.4 12C8.4 13.9882 10.0118 15.6 12 15.6Z" fill="black"/>
</svg>
