<svg width="24" height="24" viewBox="0 0 24 24" fill="none" xmlns="http://www.w3.org/2000/svg">
<path d="M19.5 22.5H18V20.25H15C14.0057 20.249 13.0525 19.8536 12.3494 19.1506C11.6464 18.4475 11.251 17.4943 11.25 16.5V15.54L9.513 14.9617C9.40649 14.9262 9.30932 14.8672 9.22866 14.7891C9.148 14.711 9.0859 14.6158 9.04696 14.5104C9.00802 14.4051 8.99322 14.2924 9.00365 14.1806C9.01409 14.0688 9.04949 13.9608 9.10725 13.8645L11.25 10.2922V8.25C11.252 6.4604 11.9638 4.74466 13.2292 3.47922C14.4947 2.21378 16.2104 1.50199 18 1.5H21.75V3H18C16.6081 3.00159 15.2737 3.55522 14.2894 4.53944C13.3052 5.52367 12.7516 6.8581 12.75 8.25V10.5C12.7498 10.6358 12.7128 10.7691 12.6428 10.8855L10.875 13.8345L12.2378 14.2883C12.387 14.3381 12.5168 14.4337 12.6087 14.5615C12.7007 14.6892 12.7501 14.8426 12.75 15V16.5C12.7506 17.0966 12.9878 17.6685 13.4097 18.0903C13.8315 18.5122 14.4034 18.7494 15 18.75H18.75C18.9489 18.75 19.1397 18.829 19.2803 18.9697C19.421 19.1103 19.5 19.3011 19.5 19.5V22.5Z" fill="#3186A0"/>
<path d="M14.25 9H17.25V10.5H14.25V9ZM6.999 18.9128C6.44856 18.4203 6.00821 17.8173 5.70673 17.1431C5.40524 16.4688 5.24941 15.7386 5.24941 15C5.24941 14.2614 5.40524 13.5312 5.70673 12.8569C6.00821 12.1827 6.44856 11.5797 6.999 11.0873L7.9995 12.2048C7.60631 12.5565 7.29176 12.9872 7.0764 13.4688C6.86105 13.9504 6.74973 14.4721 6.74973 14.9996C6.74973 15.5272 6.86105 16.0488 7.0764 16.5304C7.29176 17.012 7.60631 17.4428 7.9995 17.7945L6.999 18.9128Z" fill="#3186A0"/>
<path d="M4.8 21.6C3.77565 20.8313 2.94428 19.8348 2.37169 18.6893C1.79909 17.5438 1.501 16.2807 1.501 15C1.501 13.7193 1.79909 12.4562 2.37169 11.3107C2.94428 10.1652 3.77565 9.16864 4.8 8.39999L5.7 9.59999C4.86153 10.2287 4.18098 11.0441 3.71226 11.9814C3.24353 12.9187 2.9995 13.9524 2.9995 15.0004C2.9995 16.0484 3.24353 17.082 3.71226 18.0193C4.18098 18.9567 4.86153 19.772 5.7 20.4007L4.8 21.6Z" fill="#3186A0"/>
</svg>
